<svg id="register" xmlns="http://www.w3.org/2000/svg" width="72" height="72" viewBox="0 0 72 72">
  <defs>
    <style>
      .cls-1 {
        fill: none;
      }

      .cls-2 {
        fill: #000;
      }
    </style>
  </defs>
  <path id="Path_3" data-name="Path 3" class="cls-1" d="M0,0H72V72H0Z"/>
  <path id="Path_4" data-name="Path 4" class="cls-2" d="M45.5,26A7.5,7.5,0,1,0,38,18.5,7.477,7.477,0,0,0,45.5,26ZM23,23a9,9,0,1,0-9-9A8.962,8.962,0,0,0,23,23Zm22.5,9C40.01,32,29,34.76,29,40.25V47H62V40.25C62,34.76,50.99,32,45.5,32ZM23,29C16.01,29,2,32.51,2,39.5V47H23V40.25c0-2.55.99-7.02,7.11-10.41A36.849,36.849,0,0,0,23,29Z" transform="translate(4 10)"/>
</svg>
